<svg width="7" height="12" viewBox="0 0 7 12" fill="none" xmlns="http://www.w3.org/2000/svg">
<path d="M0.657702 11.0685L5.26843 6.38373C5.36955 6.28151 5.42627 6.14353 5.42627 5.99974C5.42627 5.85596 5.36955 5.71798 5.26843 5.61576L0.658703 0.930983C0.557633 0.828133 0.501 0.689701 0.501 0.545502C0.501 0.401302 0.557633 0.26287 0.658703 0.16002C0.708077 0.109374 0.767089 0.0691234 0.832263 0.0416409C0.897435 0.0141585 0.96745 0 1.03818 0C1.10891 0 1.17893 0.0141585 1.2441 0.0416409C1.30927 0.0691234 1.36828 0.109374 1.41766 0.16002L6.02738 4.8438C6.33029 5.15231 6.5 5.56739 6.5 5.99974C6.5 6.4321 6.33029 6.84718 6.02738 7.15569L1.41766 11.8395C1.36827 11.8903 1.30919 11.9306 1.24393 11.9582C1.17866 11.9858 1.10853 12 1.03768 12C0.966829 12 0.896698 11.9858 0.831433 11.9582C0.766167 11.9306 0.707092 11.8903 0.657702 11.8395C0.556633 11.7366 0.5 11.5982 0.5 11.454C0.5 11.3098 0.556633 11.1714 0.657702 11.0685Z" fill="#016FBA"/>
</svg>
