<svg width="7" height="12" viewBox="0 0 7 12" fill="none" xmlns="http://www.w3.org/2000/svg">
<path d="M6.3423 11.0685L1.73157 6.38373C1.63045 6.28151 1.57373 6.14353 1.57373 5.99974C1.57373 5.85596 1.63045 5.71798 1.73157 5.61576L6.3413 0.930983C6.44237 0.828133 6.499 0.689701 6.499 0.545502C6.499 0.401302 6.44237 0.26287 6.3413 0.16002C6.29192 0.109374 6.23291 0.0691234 6.16774 0.0416409C6.10256 0.0141585 6.03255 0 5.96182 0C5.89109 0 5.82107 0.0141585 5.7559 0.0416409C5.69073 0.0691234 5.63172 0.109374 5.58234 0.16002L0.972617 4.8438C0.669709 5.15231 0.5 5.56739 0.5 5.99974C0.5 6.4321 0.669709 6.84718 0.972617 7.15569L5.58234 11.8395C5.63173 11.8903 5.69081 11.9306 5.75607 11.9582C5.82134 11.9858 5.89147 12 5.96232 12C6.03317 12 6.1033 11.9858 6.16857 11.9582C6.23383 11.9306 6.29291 11.8903 6.3423 11.8395C6.44337 11.7366 6.5 11.5982 6.5 11.454C6.5 11.3098 6.44337 11.1714 6.3423 11.0685Z" fill="#016FBA"/>
</svg>
