<svg width="23" height="22" viewBox="0 0 23 22" fill="none" xmlns="http://www.w3.org/2000/svg">
<path d="M12.1963 1.24266L14.5097 6.51922C14.5968 6.71777 14.7355 6.88932 14.9115 7.01599C15.0874 7.14266 15.2941 7.2198 15.5101 7.23937L21.1458 7.74469C21.7835 7.8375 22.0379 8.61953 21.5755 9.06984L17.3302 12.6362C16.9865 12.925 16.8301 13.3787 16.9246 13.817L18.1586 19.5938C18.2669 20.228 17.6018 20.7127 17.0311 20.4119L12.1121 17.5312C11.9266 17.4223 11.7153 17.3649 11.5002 17.3649C11.2851 17.3649 11.0738 17.4223 10.8883 17.5312L5.96927 20.4102C5.40037 20.7092 4.73349 20.2262 4.84177 19.592L6.07584 13.8153C6.16865 13.377 6.01396 12.9233 5.67021 12.6345L1.42318 9.07156C0.962554 8.62297 1.21693 7.83922 1.85287 7.74641L7.48865 7.24109C7.70456 7.22152 7.91127 7.14438 8.08721 7.01771C8.26316 6.89104 8.4019 6.71949 8.48896 6.52094L10.8024 1.24438C11.0894 0.666875 11.911 0.666875 12.1963 1.24266Z" fill="#FDD835"/>
<path d="M12.0275 6.83549L11.6356 2.94768C11.6202 2.73111 11.5755 2.35986 11.9227 2.35986C12.1977 2.35986 12.3472 2.93221 12.3472 2.93221L13.5228 6.05346C13.9663 7.24111 13.7841 7.64846 13.3561 7.88908C12.8645 8.16408 12.1392 7.94924 12.0275 6.83549Z" fill="#FFFF8D"/>
<path d="M16.8763 12.2906L20.2485 9.65916C20.4152 9.51994 20.716 9.29822 20.4754 9.04557C20.2846 8.84619 19.769 9.13322 19.769 9.13322L16.8179 10.2865C15.9379 10.5907 15.3535 11.041 15.3019 11.6082C15.2349 12.3645 15.9138 12.9471 16.8763 12.2906Z" fill="#F4B400"/>
</svg>
