<svg aria-hidden="true" style="position: absolute; width: 0; height: 0; overflow: hidden;" version="1.1" xmlns="http://www.w3.org/2000/svg" xmlns:xlink="http://www.w3.org/1999/xlink">
<defs>
<symbol id="icon-whatsapp" viewBox="0 0 31 32">
<path d="M7.68 0.64h15.36c4.242 0 7.68 3.438 7.68 7.68v15.36c0 4.242-3.438 7.68-7.68 7.68h-15.36c-4.242 0-7.68-3.438-7.68-7.68v-15.36c0-4.242 3.438-7.68 7.68-7.68z"></path>
<path fill="currentColor" d="M16.994 18.859c-0.436 0.257-1.387 0.335-3.197-1.469s-1.733-2.753-1.476-3.187c0.656-0.066 1.282-0.503 1.865-1.084 0.43-0.43 0.082-1.472-0.78-2.331-0.86-0.857-1.906-1.205-2.338-0.776-2.771 2.763-1.384 6.387 1.169 8.932 2.587 2.58 6.122 3.994 8.96 1.165 0.431-0.428 0.083-1.472-0.779-2.329-0.86-0.858-1.907-1.206-2.338-0.776-0.582 0.58-1.021 1.204-1.088 1.857z"></path>
<path fill="currentColor" d="M15.464 6.784c-1.643-0-3.255 0.451-4.659 1.305s-2.546 2.078-3.301 3.537c-0.755 1.459-1.095 3.098-0.982 4.737s0.675 3.216 1.624 4.558c0.088 0.124 0.143 0.269 0.159 0.421s-0.007 0.305-0.068 0.445l-1.271 2.939 3.725-1.081c0.219-0.064 0.453-0.041 0.656 0.064 1.206 0.623 2.537 0.964 3.893 0.997s2.703-0.241 3.938-0.804c1.235-0.563 2.326-1.398 3.19-2.444s1.481-2.274 1.801-3.593c0.321-1.319 0.338-2.693 0.050-4.019s-0.873-2.569-1.711-3.637c-0.838-1.067-1.908-1.93-3.128-2.523s-2.559-0.902-3.916-0.903zM4.726 15.746c0.001-2.327 0.757-4.591 2.156-6.451s3.363-3.215 5.599-3.862c2.235-0.647 4.62-0.549 6.796 0.277s4.024 2.337 5.266 4.304 1.812 4.285 1.624 6.605c-0.189 2.319-1.126 4.515-2.67 6.255s-3.612 2.933-5.893 3.396c-2.28 0.464-4.65 0.174-6.751-0.825l-5.201 1.509c-0.162 0.047-0.333 0.047-0.495-0s-0.307-0.139-0.418-0.265-0.184-0.282-0.211-0.448c-0.026-0.166-0.005-0.337 0.062-0.491l1.825-4.223c-1.106-1.725-1.692-3.732-1.689-5.781z"></path>
</symbol>
<symbol id="icon-typcn_social-linkedin" viewBox="0 0 31 32">
<path  d="M7.68 0.64h15.36c4.242 0 7.68 3.438 7.68 7.68v15.36c0 4.242-3.438 7.68-7.68 7.68h-15.36c-4.242 0-7.68-3.438-7.68-7.68v-15.36c0-4.242 3.438-7.68 7.68-7.68z"></path>
<path fill="currentColor"  d="M10.24 24.96h-3.84v-12.8h3.84v12.8zM24.32 24.96h-3.84v-6.838c0-1.782-0.635-2.669-1.893-2.669-0.997 0-1.629 0.497-1.947 1.491v8.015h-3.84c0 0 0.051-11.52 0-12.8h3.031l0.234 2.56h0.079c0.787-1.28 2.045-2.148 3.771-2.148 1.312 0 2.373 0.365 3.183 1.281 0.815 0.918 1.221 2.149 1.221 3.878v7.228z"></path>
<path fill="currentColor"  d="M8.32 10.88c1.096 0 1.984-0.86 1.984-1.92s-0.888-1.92-1.984-1.92c-1.096 0-1.984 0.86-1.984 1.92s0.888 1.92 1.984 1.92z"></path>
</symbol>
<symbol id="icon-insta" viewBox="0 0 31 32">
<path d="M7.68 0.64h15.36c4.242 0 7.68 3.438 7.68 7.68v15.36c0 4.242-3.438 7.68-7.68 7.68h-15.36c-4.242 0-7.68-3.438-7.68-7.68v-15.36c0-4.242 3.438-7.68 7.68-7.68z"></path>
<path fill="currentColor" d="M23.040 16.64c0 4.242-3.438 7.68-7.68 7.68s-7.68-3.438-7.68-7.68c0-4.242 3.438-7.68 7.68-7.68s7.68 3.438 7.68 7.68z"></path>
<path  d="M19.627 16.64c0 2.356-1.91 4.267-4.267 4.267s-4.267-1.91-4.267-4.267c0-2.356 1.91-4.267 4.267-4.267s4.267 1.91 4.267 4.267z"></path>
<path fill="currentColor" d="M25.6 8.107c0 0.943-0.764 1.707-1.707 1.707s-1.707-0.764-1.707-1.707 0.764-1.707 1.707-1.707c0.942 0 1.707 0.764 1.707 1.707z"></path>
</symbol>

  <symbol fill="none" xmlns="http://www.w3.org/2000/svg" viewBox="0 0 17 18" id="pen">
    <path d="M11.6724 1.77825C12.2137 1.23688 12.9478 0.932693 13.7134 0.932617C14.4789 0.932542 15.2131 1.23658 15.7545 1.77785C16.2959 2.31911 16.6001 3.05327 16.6001 3.81881C16.6002 4.58436 16.2962 5.31858 15.7549 5.85995L15.0362 6.5803C15.5263 7.07235 15.8011 7.73875 15.8003 8.43322C15.7996 9.1277 15.5233 9.7935 15.0321 10.2845L13.5939 11.7228C13.5381 11.7806 13.4713 11.8267 13.3975 11.8584C13.3237 11.8902 13.2444 11.9069 13.164 11.9076C13.0837 11.9084 13.004 11.8931 12.9297 11.8627C12.8553 11.8323 12.7877 11.7874 12.7309 11.7307C12.6741 11.6739 12.6291 11.6064 12.5987 11.532C12.5682 11.4577 12.5529 11.378 12.5535 11.2977C12.5542 11.2174 12.5708 11.138 12.6025 11.0641C12.6342 10.9903 12.6802 10.9235 12.738 10.8677L14.1763 9.42861C14.4406 9.16454 14.5894 8.80645 14.5902 8.43282C14.5909 8.05919 14.4435 7.7005 14.1803 7.43536L6.11532 15.502C5.78755 15.83 5.37505 16.0604 4.92388 16.1674L1.21244 17.0507C1.11191 17.0748 1.00691 17.0726 0.907442 17.0446C0.807974 17.0165 0.717356 16.9634 0.644233 16.8904C0.571109 16.8173 0.517917 16.7268 0.48973 16.6273C0.461543 16.5279 0.459301 16.4229 0.483217 16.3223L1.36732 12.6101C1.4746 12.1592 1.70531 11.747 2.03281 11.4194L11.6724 1.77825Z" fill="#130F20"></path>
  </symbol>
  <symbol fill="none" xmlns="http://www.w3.org/2000/svg" viewBox="0 0 18 15" id="diament">
    <path d="M14.0001 0.333252C14.1256 0.333254 14.2494 0.361583 14.3624 0.416125C14.4754 0.470668 14.5746 0.550016 14.6526 0.648252L14.7143 0.738252L17.2143 4.90492C17.2961 5.04155 17.3371 5.19878 17.3324 5.35799C17.3277 5.5172 17.2774 5.67172 17.1876 5.80325L17.1209 5.88908L10.0126 13.8333C9.8806 13.9679 9.72306 14.0749 9.5492 14.1478C9.37533 14.2208 9.18865 14.2584 9.00009 14.2583C8.66676 14.2583 8.34593 14.1416 8.07509 13.9108L7.96259 13.8058L0.87926 5.88908C0.772697 5.77018 0.702535 5.62317 0.677125 5.46553C0.651715 5.3079 0.672125 5.14629 0.735927 4.99992L0.785927 4.90408L3.29676 0.719085L3.35009 0.644085C3.38833 0.596718 3.43165 0.553683 3.47926 0.515752L3.55343 0.462419L3.62676 0.420752L3.66843 0.401585L3.71843 0.380752L3.80926 0.354085L3.90259 0.337419L4.00009 0.333252H14.0001ZM6.59509 3.61909C6.40565 3.50564 6.17892 3.47202 5.9647 3.52561C5.75049 3.5792 5.5663 3.71563 5.45259 3.90492L4.95259 4.73825L4.90259 4.83492C4.83881 4.98199 4.8188 5.14433 4.84497 5.30248C4.87113 5.46064 4.94235 5.60789 5.05009 5.72659L6.71676 7.55992L6.79176 7.63325C6.94602 7.76525 7.14316 7.8364 7.34616 7.83333C7.54916 7.83026 7.74406 7.75319 7.89426 7.61658L7.96676 7.54158C8.09876 7.38733 8.16991 7.19019 8.16684 6.98718C8.16377 6.78418 8.0867 6.58928 7.95009 6.43909L6.69926 5.06409L6.88093 4.76159L6.92676 4.67575C7.0105 4.48957 7.02299 4.27913 6.96185 4.08435C6.90072 3.88957 6.77021 3.72401 6.59509 3.61909Z" fill="#130F20"></path>
  </symbol>
  <symbol fill="none" xmlns="http://www.w3.org/2000/svg" viewBox="0 0 19 19" id="zoom">
    <path d="M7.33317 0.666748C5.56506 0.666748 3.86937 1.36913 2.61913 2.61937C1.36888 3.86961 0.666504 5.5653 0.666504 7.33341C0.666504 9.10152 1.36888 10.7972 2.61913 12.0475C3.86937 13.2977 5.56506 14.0001 7.33317 14.0001C9.10128 14.0001 10.797 13.2977 12.0472 12.0475C13.2975 10.7972 13.9998 9.10152 13.9998 7.33341C13.9998 5.5653 13.2975 3.86961 12.0472 2.61937C10.797 1.36913 9.10128 0.666748 7.33317 0.666748Z" fill="black"></path>
    <path fill-rule="evenodd" clip-rule="evenodd" d="M18.3289 18.3289C18.1727 18.4852 17.9607 18.5729 17.7398 18.5729C17.5188 18.5729 17.3069 18.4852 17.1506 18.3289L14.2339 15.4123C14.0821 15.2551 13.9981 15.0446 14 14.8261C14.0019 14.6076 14.0896 14.3986 14.2441 14.2441C14.3986 14.0896 14.6076 14.0019 14.8261 14C15.0446 13.9981 15.2551 14.0821 15.4123 14.2339L18.3289 17.1506C18.4852 17.3069 18.5729 17.5188 18.5729 17.7398C18.5729 17.9607 18.4852 18.1727 18.3289 18.3289Z" fill="black"></path>
  </symbol>
  <symbol fill="none" xmlns="http://www.w3.org/2000/svg" viewBox="0 0 16 18" id="bliskavka">
    <path d="M15.1112 0.272199C15.0897 0.22399 15.0545 0.18309 15.0102 0.154484C14.9658 0.125878 14.914 0.1108 14.8612 0.111088H7.12232C7.07584 0.111165 7.03012 0.122904 6.98936 0.145228C6.94859 0.167551 6.91408 0.199747 6.88898 0.238866L0.938984 9.68331C0.910339 9.72443 0.893603 9.77267 0.89062 9.8227C0.887636 9.87273 0.898522 9.92261 0.922076 9.96684C0.945631 10.0111 0.980941 10.048 1.02412 10.0734C1.06729 10.0989 1.11665 10.1119 1.16676 10.1111H5.42787L1.66676 17.4722C1.64517 17.516 1.63502 17.5645 1.63726 17.6133C1.6395 17.662 1.65406 17.7094 1.67959 17.751C1.70511 17.7926 1.74075 17.8271 1.7832 17.8512C1.82565 17.8753 1.87351 17.8883 1.92232 17.8889H3.58898C3.62754 17.8891 3.66573 17.8814 3.70112 17.8661C3.73651 17.8507 3.76832 17.8282 3.79454 17.8L13.5557 7.24998C13.5944 7.21048 13.6205 7.16031 13.6305 7.10589C13.6406 7.05148 13.6342 6.99531 13.6121 6.94457C13.59 6.89383 13.5532 6.85085 13.5066 6.82113C13.4599 6.79141 13.4054 6.77631 13.3501 6.77775H9.60565L15.0668 0.566644C15.102 0.527185 15.1249 0.478327 15.1328 0.426037C15.1407 0.373748 15.1332 0.320291 15.1112 0.272199Z" fill="#130F20"></path>
  </symbol>
  <symbol fill="none" xmlns="http://www.w3.org/2000/svg" viewBox="0 0 22 22" id="stick">
    <path d="M21.5767 9.67005L19.1288 7.2214C19.1009 7.1674 19.0852 7.1079 19.0829 7.04715L20.3665 3.21367C20.4603 2.99173 20.4858 2.74682 20.4397 2.51029C20.3936 2.27377 20.278 2.05639 20.1077 1.88599C19.9373 1.71558 19.72 1.59992 19.4835 1.5538C19.2471 1.50767 19.0023 1.53319 18.7804 1.62709L14.9573 2.91103C14.8998 2.92217 14.8406 2.92217 14.7831 2.91103L12.326 0.41652C12.1704 0.221893 11.9538 0.0853426 11.7111 0.0288664C11.4685 -0.0276098 11.2139 -0.000722848 10.9883 0.105196C10.7628 0.211114 10.5795 0.389897 10.4679 0.61274C10.3563 0.835584 10.323 1.08951 10.3732 1.33362L10.795 5.09373C10.7981 5.12728 10.7981 5.16105 10.795 5.19461L6.81603 7.39565C6.58423 7.49142 6.39097 7.66174 6.26679 7.8797C6.14261 8.09765 6.09461 8.35079 6.13037 8.5991C6.16613 8.8474 6.28362 9.07669 6.46425 9.25072C6.64488 9.42474 6.87835 9.53357 7.12774 9.56L9.72231 10.1653C9.76138 10.1738 9.7974 10.1928 9.82647 10.2203C9.85555 10.2478 9.87659 10.2827 9.88734 10.3212C9.89882 10.3609 9.89979 10.4029 9.89014 10.4431C9.8805 10.4833 9.86058 10.5203 9.83233 10.5505L0.334184 20.0516C0.228235 20.1576 0.144191 20.2834 0.0868516 20.4219C0.0295122 20.5604 0 20.7088 0 20.8587C0 21.0085 0.0295122 21.157 0.0868516 21.2954C0.144191 21.4339 0.228235 21.5597 0.334184 21.6657C0.440134 21.7717 0.565914 21.8558 0.704344 21.9131C0.842773 21.9705 0.991141 22 1.14098 22C1.29081 22 1.43918 21.9705 1.57761 21.9131C1.71604 21.8558 1.84182 21.7717 1.94777 21.6657L11.4459 12.1646C11.4769 12.1377 11.5139 12.1188 11.5538 12.1092C11.5937 12.0996 11.6353 12.0997 11.6751 12.1095C11.7143 12.1219 11.7495 12.1446 11.7769 12.1753C11.8043 12.2059 11.823 12.2434 11.831 12.2838L12.4361 14.8792C12.464 15.128 12.574 15.3605 12.7486 15.5399C12.9232 15.7194 13.1526 15.8356 13.4005 15.8703C13.6484 15.9049 13.9009 15.8561 14.118 15.7315C14.3351 15.6068 14.5046 15.4134 14.5997 15.1818L16.7726 11.2658C16.7726 11.2658 16.8551 11.2108 16.8643 11.2016L20.6415 11.6235C20.8872 11.6801 21.1449 11.6514 21.372 11.5419C21.5992 11.4325 21.7823 11.2489 21.8912 11.0214C22.0001 10.7939 22.0283 10.5361 21.9711 10.2905C21.9139 10.0448 21.7748 9.82602 21.5767 9.67005Z" fill="#130F20"></path>
  </symbol>

  <symbol fill="none" xmlns="http://www.w3.org/2000/svg" viewBox="0 0 20 16" id="code">
    <path d="M16.197 4.36449L14.9397 3.07514L13.7554 4.13536L12.9679 4.84163L16.151 8.11591L14.1587 10.1657L12.967 11.391C13.4187 11.8008 13.863 12.2041 14.3139 12.6114L14.9413 13.1813L16.7563 11.3114L19.8548 8.11509L16.197 4.36449ZM2.60217 5.59553L0.14502 8.11509C1.79571 9.81753 3.42423 11.4945 5.05932 13.1797L5.47816 12.7986L7.03276 11.3902L5.84443 10.1682L3.84882 8.11509L6.40205 5.49041L7.03194 4.84245C6.67553 4.52217 6.32568 4.20845 5.97419 3.89474L5.05932 3.07268L2.60217 5.59553ZM12.9375 0.636877L9.69769 15.884L9.53673 15.852L7.04919 15.3634L9.14746 5.49205L10.2898 0.116211L12.9375 0.636877Z" fill="#130F20"></path>
  </symbol>
  <symbol version="1.1" id="chevron-arrows"  xml:space="preserve" fill="#fffafa" transform="rotate(0)matrix(1, 0, 0, 1, 0, 0)" stroke="#fffafa" stroke-width="9.728" viewBox="0 0 512 512">
    <g id="SVGRepo_bgCarrier" stroke-width="0"></g>
    <g id="SVGRepo_tracerCarrier" stroke-linecap="round" stroke-linejoin="round"></g>
    <g id="SVGRepo_iconCarrier">
      <path d="M505.183,123.179c-9.087-9.087-23.824-9.089-32.912,0.002l-216.266,216.27L39.729,123.179 c-9.087-9.087-23.824-9.089-32.912,0.002c-9.089,9.089-9.089,23.824,0,32.912L239.55,388.82c4.364,4.364,10.283,6.816,16.455,6.816 c6.172,0,12.092-2.453,16.455-6.817l232.721-232.727C514.272,147.004,514.272,132.268,505.183,123.179z"></path>
    </g>
  </symbol>

  <symbol fill="none"  viewBox="0 0 150 150" id="BenefitFour">
    <path d="M63.875 66.4738L54.665 53.5588M93.5262 96.1288L106.441 105.335M126.875 80C126.875 105.888 105.888 126.875 80 126.875C54.1116 126.875 33.125 105.888 33.125 80C33.125 54.1117 54.1116 33.125 80 33.125C105.888 33.125 126.875 54.1117 126.875 80ZM61.835 1.44876L37.2987 11.6113L42.2787 29.975C37.6295 33.4877 33.49 37.6284 29.9787 42.2788L11.615 37.2988L1.44873 61.835L17.81 71.2175C17.395 74.13 17.1875 77.0575 17.1875 80C17.1875 82.94 17.395 85.8675 17.81 88.7825L1.44873 98.165L11.6112 122.701L29.975 117.721C33.4877 122.371 37.6284 126.51 42.2787 130.021L37.2987 148.385L61.835 158.551L71.2175 142.19C74.13 142.603 77.0575 142.81 80 142.812C82.94 142.812 85.8675 142.605 88.7825 142.19L98.165 158.551L122.701 148.389L117.721 130.025C122.371 126.512 126.51 122.372 130.021 117.721L148.385 122.701L158.551 98.165L142.19 88.7825C142.602 85.8675 142.81 82.94 142.812 80C142.805 77.0615 142.595 74.127 142.182 71.2175L158.551 61.835L148.389 37.2988L130.179 42.2375C126.641 37.541 122.463 33.363 117.766 29.825L122.701 11.615L98.165 1.44876L88.7825 17.8175C85.873 17.4053 82.9385 17.1948 80 17.1875C77.0575 17.1875 74.13 17.395 71.2175 17.81L61.835 1.44876ZM60.3162 48.4925L70.2725 62C58.5537 69.59 55.685 71.7013 71.99 88.01C88.3025 104.319 90.41 101.446 98 89.7313L111.507 99.6838C91.7487 126.009 70.7 101.019 64.8387 95.1613C58.9812 89.3 33.9912 68.2513 60.3162 48.4925Z" stroke="#5EB5FB" stroke-opacity="0.3" stroke-linecap="round" stroke-linejoin="round"></path>
  </symbol>
  <symbol fill="none"  viewBox="0 0 150 150" id="BenefitTree">
    <path d="M61.95 61.95C59.2744 64.6117 57.7639 68.226 57.75 72C57.75 75.7793 59.2513 79.4039 61.9237 82.0763C64.5961 84.7487 68.2207 86.25 72 86.25C75.774 86.2361 79.3883 84.7256 82.05 82.05" stroke="#5EB5FB" stroke-opacity="0.5" stroke-linecap="round" stroke-linejoin="round"></path>
    <path d="M72 29.25C63.5449 29.25 55.2796 31.7572 48.2494 36.4547C41.2192 41.1521 35.7398 47.8287 32.5042 55.6403C29.2685 63.4518 28.4219 72.0474 30.0714 80.3401C31.721 88.6328 35.7925 96.2501 41.7712 102.229C47.7499 108.207 55.3672 112.279 63.6599 113.929C71.9526 115.578 80.5482 114.731 88.3597 111.496C96.1713 108.26 102.848 102.781 107.545 95.7506C112.243 88.7204 114.75 80.4551 114.75 72" stroke="#5EB5FB" stroke-opacity="0.5" stroke-linecap="round" stroke-linejoin="round"></path>
    <path d="M72 0.75C57.9081 0.75 44.1327 4.92874 32.4156 12.7578C20.6986 20.5868 11.5664 31.7146 6.17361 44.7338C0.780871 57.753 -0.630116 72.079 2.11908 85.9002C4.86828 99.7213 11.6542 112.417 21.6187 122.381C31.5832 132.346 44.2787 139.132 58.0998 141.881C71.921 144.63 86.247 143.219 99.2662 137.826C112.285 132.434 123.413 123.301 131.242 111.584C139.071 99.8674 143.25 86.0919 143.25 72M98.4375 45.57L79.125 64.875" stroke="#5EB5FB" stroke-opacity="0.5" stroke-linecap="round" stroke-linejoin="round"></path>
    <path d="M139.05 25.83L114.75 29.25L118.17 4.94998C118.195 4.66773 118.136 4.38441 117.999 4.13622C117.862 3.88802 117.655 3.68623 117.403 3.55662C117.151 3.427 116.866 3.37546 116.584 3.40856C116.303 3.44167 116.038 3.55793 115.823 3.74248L99.7127 19.77C98.058 21.4366 96.8409 23.4864 96.1696 25.737C95.4984 27.9876 95.3938 30.3692 95.8652 32.67L98.4302 45.57L111.33 48.1275C113.631 48.5989 116.013 48.4943 118.263 47.823C120.514 47.1518 122.564 45.9347 124.23 44.28L140.25 28.1775C140.435 27.962 140.552 27.6961 140.585 27.4138C140.618 27.1316 140.566 26.846 140.435 26.5936C140.304 26.3413 140.101 26.1337 139.852 25.9977C139.602 25.8616 139.318 25.8032 139.035 25.83" stroke="#5EB5FB" stroke-opacity="0.5" stroke-linecap="round" stroke-linejoin="round"></path>
  </symbol>
  <symbol fill="none"  viewBox="0 0 150 150" id="BenefitTwo">
    <path d="M50.9732 131H10.9731C8.32098 131 5.77744 129.946 3.90208 128.071C2.02671 126.196 0.973145 123.652 0.973145 121V11C0.973145 8.34783 2.02671 5.8043 3.90208 3.92893C5.77744 2.05357 8.32098 1 10.9731 1H110.973C113.625 1 116.169 2.05357 118.044 3.92893C119.92 5.8043 120.973 8.34783 120.973 11V56M50.9732 31H90.9732M30.9731 61H90.9732M30.9731 91H80.9731M146.846 95.1333L95.9998 146L70.9998 151L75.9998 126L126.873 75.1333C129.517 72.4892 133.104 71.0037 136.843 71.0037C140.583 71.0037 144.169 72.4892 146.813 75.1333L146.873 75.1867C148.182 76.4978 149.219 78.054 149.926 79.7662C150.633 81.4784 150.995 83.3131 150.993 85.1655C150.99 87.0179 150.623 88.8517 149.911 90.562C149.2 92.2723 148.158 93.8257 146.846 95.1333Z" stroke="#5EB5FB" stroke-opacity="0.5" stroke-linecap="round" stroke-linejoin="round"></path>
  </symbol>
  <symbol fill="none"  viewBox="0 0 150 150" id="benefitOne">
    <path d="M1.00001 68.5H121M61 143.5V1M1.00001 70.39C1.00001 128.043 52.885 148.293 60.1525 150.85C60.7175 151.05 61.2825 151.05 61.8475 150.85C69.13 148.375 121 128.635 121 70.3975V18.28C121.002 17.6097 120.779 16.9582 120.367 16.4295C119.955 15.9007 119.378 15.525 118.727 15.3625L61.7275 1.09C61.2499 0.970606 60.7502 0.970606 60.2725 1.09L3.27251 15.3625C2.62224 15.525 2.04514 15.9007 1.63325 16.4295C1.22137 16.9582 0.998435 17.6097 1.00001 18.28V70.39Z" stroke="#5EB5FB" stroke-opacity="0.5" stroke-miterlimit="10" stroke-linecap="round" stroke-linejoin="round"></path>
  </symbol>


</defs>
</svg>
