<svg aria-hidden="true" style="position: absolute; width: 0; height: 0; overflow: hidden;" version="1.1" xmlns="http://www.w3.org/2000/svg" xmlns:xlink="http://www.w3.org/1999/xlink">
<defs>
<symbol id="icon-whatsapp" viewBox="0 0 31 32">
<path d="M7.68 0.64h15.36c4.242 0 7.68 3.438 7.68 7.68v15.36c0 4.242-3.438 7.68-7.68 7.68h-15.36c-4.242 0-7.68-3.438-7.68-7.68v-15.36c0-4.242 3.438-7.68 7.68-7.68z"></path>
<path fill="currentColor" d="M16.994 18.859c-0.436 0.257-1.387 0.335-3.197-1.469s-1.733-2.753-1.476-3.187c0.656-0.066 1.282-0.503 1.865-1.084 0.43-0.43 0.082-1.472-0.78-2.331-0.86-0.857-1.906-1.205-2.338-0.776-2.771 2.763-1.384 6.387 1.169 8.932 2.587 2.58 6.122 3.994 8.96 1.165 0.431-0.428 0.083-1.472-0.779-2.329-0.86-0.858-1.907-1.206-2.338-0.776-0.582 0.58-1.021 1.204-1.088 1.857z"></path>
<path fill="currentColor" d="M15.464 6.784c-1.643-0-3.255 0.451-4.659 1.305s-2.546 2.078-3.301 3.537c-0.755 1.459-1.095 3.098-0.982 4.737s0.675 3.216 1.624 4.558c0.088 0.124 0.143 0.269 0.159 0.421s-0.007 0.305-0.068 0.445l-1.271 2.939 3.725-1.081c0.219-0.064 0.453-0.041 0.656 0.064 1.206 0.623 2.537 0.964 3.893 0.997s2.703-0.241 3.938-0.804c1.235-0.563 2.326-1.398 3.19-2.444s1.481-2.274 1.801-3.593c0.321-1.319 0.338-2.693 0.050-4.019s-0.873-2.569-1.711-3.637c-0.838-1.067-1.908-1.93-3.128-2.523s-2.559-0.902-3.916-0.903zM4.726 15.746c0.001-2.327 0.757-4.591 2.156-6.451s3.363-3.215 5.599-3.862c2.235-0.647 4.62-0.549 6.796 0.277s4.024 2.337 5.266 4.304 1.812 4.285 1.624 6.605c-0.189 2.319-1.126 4.515-2.67 6.255s-3.612 2.933-5.893 3.396c-2.28 0.464-4.65 0.174-6.751-0.825l-5.201 1.509c-0.162 0.047-0.333 0.047-0.495-0s-0.307-0.139-0.418-0.265-0.184-0.282-0.211-0.448c-0.026-0.166-0.005-0.337 0.062-0.491l1.825-4.223c-1.106-1.725-1.692-3.732-1.689-5.781z"></path>
</symbol>
<symbol id="icon-typcn_social-linkedin" viewBox="0 0 31 32">
<path  d="M7.68 0.64h15.36c4.242 0 7.68 3.438 7.68 7.68v15.36c0 4.242-3.438 7.68-7.68 7.68h-15.36c-4.242 0-7.68-3.438-7.68-7.68v-15.36c0-4.242 3.438-7.68 7.68-7.68z"></path>
<path fill="currentColor"  d="M10.24 24.96h-3.84v-12.8h3.84v12.8zM24.32 24.96h-3.84v-6.838c0-1.782-0.635-2.669-1.893-2.669-0.997 0-1.629 0.497-1.947 1.491v8.015h-3.84c0 0 0.051-11.52 0-12.8h3.031l0.234 2.56h0.079c0.787-1.28 2.045-2.148 3.771-2.148 1.312 0 2.373 0.365 3.183 1.281 0.815 0.918 1.221 2.149 1.221 3.878v7.228z"></path>
<path fill="currentColor"  d="M8.32 10.88c1.096 0 1.984-0.86 1.984-1.92s-0.888-1.92-1.984-1.92c-1.096 0-1.984 0.86-1.984 1.92s0.888 1.92 1.984 1.92z"></path>
</symbol>
<symbol id="icon-insta" viewBox="0 0 31 32">
<path d="M7.68 0.64h15.36c4.242 0 7.68 3.438 7.68 7.68v15.36c0 4.242-3.438 7.68-7.68 7.68h-15.36c-4.242 0-7.68-3.438-7.68-7.68v-15.36c0-4.242 3.438-7.68 7.68-7.68z"></path>
<path fill="currentColor" d="M23.040 16.64c0 4.242-3.438 7.68-7.68 7.68s-7.68-3.438-7.68-7.68c0-4.242 3.438-7.68 7.68-7.68s7.68 3.438 7.68 7.68z"></path>
<path  d="M19.627 16.64c0 2.356-1.91 4.267-4.267 4.267s-4.267-1.91-4.267-4.267c0-2.356 1.91-4.267 4.267-4.267s4.267 1.91 4.267 4.267z"></path>
<path fill="currentColor" d="M25.6 8.107c0 0.943-0.764 1.707-1.707 1.707s-1.707-0.764-1.707-1.707 0.764-1.707 1.707-1.707c0.942 0 1.707 0.764 1.707 1.707z"></path>
</symbol>

</defs>
</svg>
