<svg aria-hidden="true" style="position: absolute; width: 0; height: 0; overflow: hidden;" version="1.1" xmlns="http://www.w3.org/2000/svg" xmlns:xlink="http://www.w3.org/1999/xlink">
<defs>
<symbol id="icon-linkedin-LS" viewBox="0 0 32 32">
<path d="M2.66 16c0-7.377 5.973-13.351 13.335-13.351s13.335 5.973 13.335 13.351c0 7.36-5.973 13.333-13.335 13.333s-13.335-5.973-13.335-13.333zM11.997 21.333v-8h-2.667v8h2.667zM17.329 16.924c0-1.297 1.167-1.493 1.447-1.493 0.281 0 1.22 0.285 1.22 1.493v4.409h2.667v-4.409c0-2.524-1.265-3.591-2.667-3.591s-2.289 0.463-2.667 1.12v-1.12h-2.667v8h2.667c0 0 0-4.213 0-4.409zM11.997 10.667c0-0.764-0.512-1.333-1.285-1.333-0.863 0-1.381 0.569-1.381 1.333 0 0.747 0.519 1.333 1.292 1.333 0.863 0 1.375-0.587 1.375-1.333z"></path>
</symbol>
<symbol id="icon-instagramLS" viewBox="0 0 32 32">
<path d="M10.667 4c-3.681 0-6.667 2.985-6.667 6.667v10.667c0 3.681 2.985 6.667 6.667 6.667h10.667c3.681 0 6.667-2.985 6.667-6.667v-10.667c0-3.681-2.985-6.667-6.667-6.667h-10.667zM24 6.667c0.736 0 1.333 0.597 1.333 1.333s-0.597 1.333-1.333 1.333c-0.736 0-1.333-0.597-1.333-1.333s0.597-1.333 1.333-1.333zM16 9.333c3.681 0 6.667 2.985 6.667 6.667s-2.985 6.667-6.667 6.667c-3.681 0-6.667-2.985-6.667-6.667s2.985-6.667 6.667-6.667zM16 12c-2.209 0-4 1.791-4 4v0c0 2.209 1.791 4 4 4v0c2.209 0 4-1.791 4-4v0c0-2.209-1.791-4-4-4v0z"></path>
</symbol>
</defs>
</svg>
