<svg xmlns="http://www.w3.org/2000/svg" width="435" height="250" fill="none" viewBox="0 0 435 250"><g fill="#012c3d" style="mix-blend-mode:color-dodge"><path d="M250.522 250a251 251 0 0 1-95.871-19.03 250.6 250.6 0 0 1-81.275-54.193A250 250 0 0 1 19.07 95.671 249.55 249.55 0 0 1 0 0h101.9c0 19.477 3.844 38.763 11.313 56.757a148.3 148.3 0 0 0 32.217 48.116 148.7 148.7 0 0 0 48.217 32.15 148.9 148.9 0 0 0 56.875 11.289z"/><path d="M435 250c0-32.83-6.48-65.339-19.07-95.671a250 250 0 0 0-54.306-81.106 250.6 250.6 0 0 0-81.275-54.193A251 251 0 0 0 184.479 0v101.688a148.9 148.9 0 0 1 56.875 11.289 148.7 148.7 0 0 1 48.216 32.15 148.3 148.3 0 0 1 32.217 48.116A148 148 0 0 1 333.101 250z"/></g></svg>