<svg width="34" height="34" viewBox="0 0 34 34" fill="none" xmlns="http://www.w3.org/2000/svg">
<path d="M18.3472 0.236328C20.2188 0.241319 21.1687 0.251301 21.9889 0.274591L22.3116 0.286236C22.6843 0.299545 23.0519 0.316181 23.4961 0.336145C25.2662 0.419325 26.474 0.698812 27.5337 1.10972C28.6317 1.53228 29.5567 2.10456 30.4816 3.02787C31.3279 3.85923 31.9825 4.86528 32.3998 5.97578C32.8107 7.0355 33.0902 8.24329 33.1733 10.015C33.1933 10.4576 33.2099 10.8252 33.2233 11.1995L33.2332 11.5223C33.2582 12.3408 33.2682 13.2907 33.2715 15.1622L33.2732 16.4033V18.5826C33.2772 19.7961 33.2645 21.0095 33.2349 22.2226L33.2249 22.5453C33.2116 22.9197 33.195 23.2873 33.175 23.7298C33.0918 25.5016 32.809 26.7077 32.3998 27.7691C31.9825 28.8796 31.3279 29.8856 30.4816 30.717C29.6503 31.5633 28.6442 32.2179 27.5337 32.6351C26.474 33.0461 25.2662 33.3255 23.4961 33.4087L22.3116 33.4586L21.9889 33.4686C21.1687 33.4919 20.2188 33.5035 18.3472 33.5069L17.1062 33.5085H14.9285C13.7145 33.5128 12.5005 33.5001 11.2869 33.4703L10.9641 33.4603C10.5692 33.4453 10.1744 33.4281 9.77965 33.4087C8.00957 33.3255 6.80179 33.0461 5.7404 32.6351C4.63049 32.2177 3.62503 31.5631 2.79415 30.717C1.94728 29.8858 1.29209 28.8797 0.874342 27.7691C0.46343 26.7094 0.183943 25.5016 0.100763 23.7298L0.0508545 22.5453L0.0425367 22.2226C0.0118698 21.0095 -0.00199516 19.7961 0.000946257 18.5826V15.1622C-0.00365844 13.9488 0.00854267 12.7354 0.0375458 11.5223L0.049191 11.1995C0.0624999 10.8252 0.079136 10.4576 0.0990993 10.015C0.18228 8.24329 0.461766 7.03717 0.872678 5.97578C1.2914 4.86482 1.94774 3.85873 2.79581 3.02787C3.62621 2.182 4.63109 1.52741 5.7404 1.10972C6.80179 0.698812 8.0079 0.419325 9.77965 0.336145C10.2222 0.316181 10.5915 0.299545 10.9641 0.286236L11.2869 0.276255C12.5 0.246697 13.7134 0.233941 14.9269 0.237992L18.3472 0.236328ZM16.6371 8.55438C14.431 8.55438 12.3152 9.43074 10.7553 10.9907C9.19536 12.5506 8.319 14.6663 8.319 16.8724C8.319 19.0785 9.19536 21.1942 10.7553 22.7542C12.3152 24.3141 14.431 25.1905 16.6371 25.1905C18.8431 25.1905 20.9589 24.3141 22.5188 22.7542C24.0787 21.1942 24.9551 19.0785 24.9551 16.8724C24.9551 14.6663 24.0787 12.5506 22.5188 10.9907C20.9589 9.43074 18.8431 8.55438 16.6371 8.55438ZM16.6371 11.8816C17.2925 11.8815 17.9415 12.0105 18.547 12.2612C19.1526 12.5119 19.7028 12.8794 20.1663 13.3428C20.6299 13.8062 20.9976 14.3563 21.2485 14.9618C21.4994 15.5672 21.6286 16.2162 21.6287 16.8716C21.6288 17.527 21.4998 18.176 21.2491 18.7816C20.9984 19.3871 20.6309 19.9374 20.1675 20.4009C19.7042 20.8644 19.154 21.2321 18.5486 21.483C17.9431 21.734 17.2941 21.8632 16.6387 21.8633C15.3151 21.8633 14.0456 21.3374 13.1097 20.4015C12.1737 19.4655 11.6479 18.1961 11.6479 16.8724C11.6479 15.5488 12.1737 14.2793 13.1097 13.3434C14.0456 12.4074 15.3151 11.8816 16.6387 11.8816M25.3727 6.05896C24.8211 6.05896 24.2922 6.27806 23.9022 6.66804C23.5123 7.05802 23.2932 7.58696 23.2932 8.13848C23.2932 8.69 23.5123 9.21893 23.9022 9.60892C24.2922 9.9989 24.8211 10.218 25.3727 10.218C25.9242 10.218 26.4531 9.9989 26.8431 9.60892C27.2331 9.21893 27.4522 8.69 27.4522 8.13848C27.4522 7.58696 27.2331 7.05802 26.8431 6.66804C26.4531 6.27806 25.9242 6.05896 25.3727 6.05896Z" fill="#DCDCDC"/>
</svg>
